<svg width="32" height="32" viewBox="0 0 24 24" xmlns="http://www.w3.org/2000/svg">
<style>
  path { fill: #1a1a1a; }
  @media (prefers-color-scheme: dark) {
    path { fill: #f5f5f5; }
  }
</style>
<path fill-rule="evenodd" clip-rule="evenodd" d="M7 2a1 1 0 0 1 1 1v1h8V3a1 1 0 1 1 2 0v1h1a3 3 0 0 1 3 3v4.1A7 7 0 0 1 12.1 22H5a3 3 0 0 1-3-3V7a3 3 0 0 1 3-3h1V3a1 1 0 0 1 1-1ZM4 10v9a1 1 0 0 0 1 1h6.17A7.02 7.02 0 0 1 10 15a7 7 0 0 1 7-7h3V7a1 1 0 0 0-1-1H5a1 1 0 0 0-1 1v3Zm13 2a5 5 0 1 0 0 10 5 5 0 0 0 0-10Zm.5 2a.5.5 0 0 0-1 0v3.5l2.15 2.15a.5.5 0 0 0 .7-.7L17.5 17V14Z"/>
</svg>
